<?xml version="1.0" encoding="utf-8"?>
<!-- Generator: Adobe Illustrator 19.0.0, SVG Export Plug-In . SVG Version: 6.00 Build 0)  -->
<svg version="1.1" id="layer" xmlns="http://www.w3.org/2000/svg" xmlns:xlink="http://www.w3.org/1999/xlink" x="0px" y="0px"
	 viewBox="-153 -46 652 652" style="enable-background:new -153 -46 652 652;" xml:space="preserve">
<style type="text/css">
	.st0{fill:#039BE5;}
</style>
<path class="st0" d="M-119.9,263.2c0.1,0.7,0.6,1.1,1.6,1.1h5.7c0.7,0,1.4-0.4,1.5-1c1.8-13.6,4.1-27.4,6-40.9l0,0
	c0-0.1,0-0.4,0-0.5c0-0.7-0.4-0.9-1.1-0.9h-4.6c-0.7,0-1.5,0.6-1.5,1.2l-2.1,16l-1.1,9.5l-3.4-25.5c-0.1-1-0.1-1.2-1-1.2h-5.1
	c-0.9,0-1.1,0.1-1.1,0.6c0,0.1,0,0.4,0,0.6L-119.9,263.2z M-97.6,221.3c-1,0-1.6,0.5-1.6,1.4v40.4c0,0.9,0.5,1.2,1.6,1.2h4.1
	c1.1,0,1.6-0.4,1.6-1.2v-40.3c0-1-0.5-1.4-1.6-1.4h-4.1V221.3z M-72,230.3h4.4c1.1,0,1.6-0.4,1.6-1.4v-1.8c0-4.1-4.1-6.8-9.6-6.8
	c-6.2,0-9.7,3.4-9.7,8.1c0,5.2,2.2,10.1,6.3,15.6c3.6,4.9,5.2,9.1,5.2,13.1c0,1.5-0.6,1.8-1.8,1.8c-1.4,0-2-0.4-2-1.1v-2
	c0-0.9-0.5-1.4-1.6-1.4h-4.6c-1,0-1.5,0.5-1.5,1.4v2c0,4.1,3.6,6.8,9.7,6.8c5.8,0,9.6-3.4,9.6-8.1c0-4.8-2.2-10.6-6.3-16.1
	c-3.2-4.4-5.4-8.9-5.4-12.7c0-1.2,0.6-1.7,2.2-1.7c1.2,0,1.8,0.4,1.8,1.1v1.7C-73.7,229.8-73.1,230.3-72,230.3z M-56.4,221.3
	c-1,0-1.6,0.5-1.6,1.4v40.4c0,0.9,0.5,1.2,1.6,1.2h4.1c1.1,0,1.6-0.4,1.6-1.2v-40.3c0-1-0.5-1.4-1.6-1.4h-4.1V221.3z M-37,264.3h3.9
	c1.1,0,1.7-0.4,1.7-1.4v-36.5h5.3c1.1,0,1.7-0.5,1.7-1.4v-2.6c0-0.9-0.5-1.4-1.7-1.4h-18c-1,0-1.6,0.5-1.6,1.4v2.6
	c0,0.9,0.5,1.4,1.6,1.4h5.4V263C-38.6,263.9-38.1,264.3-37,264.3z M-126.1,275.5h102.3v5.8h-102.3V275.5z M-126.1,203.8h102.3v5.8
	h-102.3V203.8z"/>
<path class="st0" d="M71.4,279.6l0.9-3.8c-0.2,1.1-0.9,2.2-0.9,3V279.6z"/>
<path class="st0" d="M-14,345.7L-14,345.7C-14.1,345.6-14,345.7-14,345.7z"/>
<path class="st0" d="M72.8,274.2l-0.5,1.6C72.4,275.3,72.8,274.7,72.8,274.2z"/>
<path class="st0" d="M192,333.3c0.2,0,0.2-0.5,0-0.5C191.8,332.8,191.8,333.3,192,333.3z"/>
<path class="st0" d="M155.4,341.9c0,0.1,0.1,0.2,0.1,0.2C155.5,342.1,155.5,342.1,155.4,341.9z"/>
<path class="st0" d="M211.5,296.5c-0.1-0.1-0.2-0.2-0.2-0.4C211.2,296.1,211.4,296.3,211.5,296.5z"/>
<path class="st0" d="M288.7,248.2c0.2,0,0.2-0.9,0-0.9C288.5,247.3,288.4,248.2,288.7,248.2z"/>
<path class="st0" d="M283.3,229.3c0.2,0,0.2-0.9,0-0.9s-0.2,0.5-0.2,0.9v-0.2c-0.2,0-0.2,0.5,0,0.5
	C283.1,229.6,283.3,229.6,283.3,229.3z"/>
<path class="st0" d="M225.6,258.3C225.6,258.3,225.8,258.3,225.6,258.3C225.8,258.2,225.6,258.3,225.6,258.3z"/>
<path class="st0" d="M329.4,234.7c-0.1-0.1-0.1-0.1-0.1-0.1L329.4,234.7z"/>
<path class="st0" d="M272.6,261.2h0.1H272.6z"/>
<path class="st0" d="M295.1,300.3l-0.2,0.5c0-1.6-0.5-6.2-2.2-7.5v1.6c-0.2-0.9-0.2-1.1-0.2-1.6c0-0.2-0.2-0.9,0.2-0.9l-1.1-0.9v0.5
	c0.2,0.2,0.2,0.9,0.5,0.9h-0.5l-0.5-1.6l0.2-0.2c0.5-0.5-1.8-2.5-3.8-4.1h-0.1c-0.9-0.9-1.8-1.6-1.8-1.8h0.9
	c-6.5-5.2-15.4-6.8-23.5-6.8c-11.1,0-21.9,1.8-32.6,4.1h-2c4.3-3.4,7-8.6,11.6-12.2c8.4-6.2,28.1-22.9,39.7-22.9h9.2
	c1.1,0,2.2,0.5,2.7,1.4v-0.2c0-0.2-0.2-0.9-0.2-1.1h0.2c1.1,0,3,1.6,3.8,2.5c0-0.9-1.6-2.2-1.8-2.5c1.8,0.5,1.8,0.9,4.1,0.9
	c-0.2,0-0.2-0.9,0.2-0.9c0.2,0,0.2,0.9,0,0.9h0.2c0-3.2-1.8-6.2-4.1-8.9c0.2,0.2,0.2,0.5,0,0.5c-0.2,0-0.2-0.9,0-0.9
	c-1.6-1.6-3-3.2-4.6-4.6c0,0.2,0,0.2-0.2,0.2c-0.2,0-0.2-0.9,0-0.9c-1.1-0.2-2.2-1.8-3.6-1.8l0.2-0.2c-0.5-0.9-1.6-1.6-2.7-2.2
	c-0.5-0.2-1.1-0.2-1.4-0.5h0.9l-2.5-2.2c0.2,0,0.2-0.5,0-0.5c-0.2,0-0.2,0.2-0.2,0.5c0-0.2,0-0.2-0.2-0.2c0.2-0.2,0.2-0.9,0-0.9
	s-0.2,0.2-0.2,0.5c-0.9-0.5-1.8-1.1-2.7-1.1c-0.5,0-1.1,0.9-1.6,1.1c-0.9,0.2-4.8,2.5-5.7,3c0,0-0.2,0.2-0.5,0.2l-8.6,4.8
	c-0.5,0.2-0.2,0-0.2,0.5h-1v0.2c-0.5,0-0.5-0.2-1.1,0.2l-11.1,7.3c-0.9,0.2-1.6,0.5-1.6,1.4h-0.5l-18.4,13.6l0.2,0.2h-0.5
	c0.2,0,0.2,0.9,0,0.9h-0.4v0.2c-0.2,0-0.2-0.6-0.1-0.7c-1.1,0.6-2.8,2.1-2.8,2.3v0.2h-0.5c0,0-2.2,1.8-3,2.7
	c-1.1,1.1-1.1,1.1-1.1,1.4c0,0,0-0.2,0.2-0.2c0.2,0,0.2,0.5,0,0.5c-1.8,0-3.9,1.8-5.8,4.4c3.9-6.5,9.4-15.4,9.4-16.4
	c0-0.5-0.2-1.1-0.9-1.4v0.2h0.2c0.2,0,0.2,0.9,0,0.9c-0.5,0-0.5-0.5-0.2-0.9H221c-0.2,0-0.2-0.5,0-0.5h0.2
	c-2.7-2.7-11.8-4.1-12.7-4.6H208c0,0.2,0.2,0.2,0.2,0.5H208c-0.2,0-0.9,0.5-0.9-0.5c-1.6,1.4-1.6,3-3.6,4.3v0.9l-8.6,16.5
	l-18.6,26.2l-0.2,0.2l-1.6,2.5l-16.8,22.9c-1.1,1.1-6.2,8.6-8.4,8.6c0-4.8,1.8-8.9,2.5-13.6l6.8-22.9c0,0,1.8-4.3,2.2-5.9l11.3-31
	c1.1-2.2,3.8-6.8,3.8-9.2c0-3.2-10.2-5.9-12.4-5.9h-0.2l0.2,0.2c0,0.2-0.5,0.2-0.5,0c0,0,0-0.2,0.2-0.2c-2.5,0.2-4.3,2.7-4.8,4.6
	c-7.5,4.3-20,14.3-29.7,14.3h-0.5c-0.5-0.9-1.4-2.7-2.5-3.2c-4.8-1.8-10.8-4.1-15.9-3.2c-1.6,0.2-3.1,0.9-4.6,1.8
	c-3.6-8.9-17.6-9.6-17.6-10.6l0.2-0.5c0.2-0.2,0.5-0.9,0.9-0.9l8.9-19.5c0,0,0.2-0.5,0.2-0.9c0.5-1.4,3.2-8.4,4.1-10
	c1.4-10.2,8.1-18.6,8.1-29.4c0-3.4-3-7.3-6.2-8.4c-1.6,0-4.8-0.5-7.3-0.5h-0.9l-0.2,0.5c-1.6-0.5-0.5,0-1.6,0c0-0.2-0.9-0.5-0.2-0.9
	c-0.9,0.2-1.8,0.9-2.5,0.5c-3,2.5-6.2,7.3-8.6,10.2l-38.3,53l-0.2,0.5L36.3,250l-15.6,4.8H20l-0.5-0.5c0.5,0.9-0.9,0.9-1.1,0.9v-0.2
	c1.1,0,0-2.2,1.4-2.7c-0.2-10.2,6.5-17,7.3-20c0-0.5,0.2-1.6,0.2-1.6l-0.2-0.2c0,0-0.5-1.8-0.5-2.7v-0.5c0-0.9,0.5-1.6,0.5-2.5h0.2
	c0-3.6,3.2-10,4.6-13.2l0.2,0.2c-0.2,0.2-0.2,1.4-0.2,1.6c0,0,0,0.5,0.2,0.5c0-0.5,0.2-1.1,0.5-1.6c1.8-5.7,3.8-12.7,4.3-19.2
	c0,0-0.2-0.9-0.2-1.4c-1.4,0,0.2-2.5-1.1-2.5h-0.2v0.5c-2.2-0.2-2.7-1.4-5.2-2.2c0,0-0.2,0-0.2-0.2l-4.6-0.9v0.2
	c-1.1,0-1.8-0.5-3.2-0.5c-1.6,0-3.2,1.1-4.1,2.5c0,0,0.2,0.5,0.2,0.9v0.2l-0.9,1.4l-25.3,73.8h-1.4c-1.6,0-2.7-0.2-4.3-0.2
	c0,0-0.2,0-0.2,0.2h-2.7c0,2.7,4.8,5.2,6.2,6.8c-1.6,4.8-3.2,11.1-5.4,15.6l-7.5,24.3c-0.5,4.1-2.2,7.3-2.5,11.1v1.6
	c0.5,0,0.5,0.5,0.2,0.5c0.2,0.2,0.2,0.5-0.2,0.5v0.5c0.5,0,0.5,0.9,0,0.9l-0.2,4.6c0.2,0.5,0.5,2.5,0.9,2.7v1.1l-1.1-3.6v0.9
	c0,1.6,3.2,11.8,6.5,11.8h0.2l-0.2-0.5c0,0,1.4,0.2,1.6,0.9h-0.5v0.2c0,0,0.9,0.2,1.1,0.2c0.5,0.2,2.2,0.2,2.5,0.5V345l1,0.5
	c-0.1-0.1-0.1-0.7,0.1-0.7s0.2,0.9,0,0.9c0.5,0,3.6,0.5,4.1,0.5c0.5-0.2,1.4-0.5,1.8-0.2l-0.2-0.2c2.7-0.9,0.9-0.2,2.5-0.2v0.5
	c1.1-0.9,4.3-4.3,5.2-4.3c0,0.2,0.2,0.5,0.2,0.5c2.2,0.2,3.2,1.1,3.2,0.2v-0.2l-0.2-0.2h0.5l2.2-2.2v-1.1c1.1,0,1.1-0.2,1.1-1.4
	c1.1,0,3-3.6,3.2-4.1v-0.5l0.9,0.2v-0.9H11c1.1-15.6,16.3-34,14.5-50l2.7-7.5c0.2,0,1.1-0.9,1.4-1.1v-0.2h-0.2
	c10.2-3.6,22.9-8.4,32.2-6.8l-10.8,43.5l-8.9,37c0,0.5-0.2,1.1-0.2,1.6l-4.1,20.8c-0.2,1.1-0.9,4.1-0.9,4.3c0,4.6,1.1,5.4,2.5,8.9
	c0.9-0.2,2.5,0.9,2.5,1.6h-0.5c0.5,0.2,0.5,1.1,1.1,1.1h0.5l-0.5-0.2h1.1l0.5-0.2c0.5,0,0.2,0.5,0.2,0.9c-0.2,0-0.2-0.5-0.5,0
	l0.5,0.2c0.9,0,0.9-0.5,1.6-0.9c0,0.5,0.2,0.9,0.5,0.9s0.9-0.2,0.9-0.5v-1.6c0.9,0,1.1-0.9,1.1-1.4l-0.5-0.5
	c0.2-0.2,0.9-0.5,1.1-0.5c0,0,0.5,0,0.5,0.2c-0.2-1.6-0.2-1.8,0-1.8c-0.2,0-0.2-0.5,0-0.5s0.2,0.5,0,0.5c0.2,0,1.1,1.4,1.1,0v-0.2
	l-0.2-0.9v-0.2l0.9,0.9l0.5-0.5l2.5-18.1c-0.5-2.5-0.2-4.8,0.2-7.3c0,0,0.2,0.2,0.5,0.2v-4.3c0.2-1.6,0.5-3,0.5-4.3l-0.2,0.2
	c4.6-19.5,5.9-26.7,6.8-32.6l0.5-2.5l0.5-0.5c0.2-0.5,0.2-1.4,0-1.8l1.6-5.7c-0.2-1.4,3.2-11.6,3.8-11.6c0-0.9,0-1.6,0.2-2.5
	l0.5,0.2v-2l0.2,0.5c0.5-1.8,2.2-4.8,2.2-6.8v-0.2l-0.9,1.8v-0.9c0-0.2,1.4-4.6,1.8-6.5c0-0.2,0.2-0.5,0.5-0.9v0.6v0.2
	c0-0.2,0-0.5,0.2-0.9c-0.2,0-0.2-0.2,0-0.2v0.2c12.2-11.3,15.4-11.1,18.4-11.1h2.5c0.2,0,0.9,0.2,0.9,0.9c1.1-0.2,2.2-0.2,3.2-0.2
	c0.2,0,0.5,0,0.6,0c-3.2,5.3-5.7,11.3-7.4,14.8c-2.7,10-7.9,18.1-7.9,29c0,6.5,3.6,20.8,12.9,20.8l-0.9-0.5v-0.2
	c0.9,0.5,1.6,1.1,2.7,1.4c-0.2,0-0.2,0.9,0,0.9c0.2,0,0.2-0.6,0.1-0.7c1.6,0.7,3.4,1.6,5.5,1.6h1.4c-0.2,0-0.2-0.5,0.2-0.5
	c0.2,0,0.2,0.5,0,0.5c3-0.2,8.6-1.4,8.6-2.7v-0.9h0.5c0-0.2,0-0.9,0.2-0.9c0.2,0,0.2,0.5,0,0.9c10-2.5,17-43.7,18.4-54.8
	c1.4-1.1,16.3-8.6,18.6-8.6v0.5c0,0.2-1.8,4.6-2.2,6.2l-6.5,18.1c-0.5,3.4-4.1,7-3.4,10.2c-3.6,9.2-6.2,19.5-6.2,29.4
	c0,5.9,0.9,9.2,4.3,12.4c0-0.2,0-0.5,0.2-0.5c0.2,0,0.2,0.5,0,0.9c0.5,0.2,1.1,0.9,1.8,1.1c0.2,0,0.5,0.5,0.5,0.5s0-0.2,0.2-0.2
	c0.9,0,1.4,0.2,1.8,0.5c0,0,0.2-0.2,0.5-0.2s0.2,0.2,0,0.5c0.9,0.5,1.6,0.9,2.7,1.1v0.2h-1c1.1,0.2,2.5,1.4,3.4,1.4
	c0-0.9-1.1-0.9-1.6-1.1h3l0.5-0.2l0.2,0.2l-0.2,0.2h-1.4c-0.2,0.9,0.2,0.9,0.5,0.9c1.1,0,5.7-1.1,6.2-2.2c0-0.2,0-0.4-0.1-0.6
	c0.1,0,0.1,0.1,0.2,0.1c0-0.2,0-0.6,0.1-0.6c0.2,0,0.2,0.9,0,0.9h0.2c0.5,0,0.5-0.5,0.2-1.1l0.9,0.2v-0.9l0.5,0.2v-0.5
	c0.2,0,0.2,0.2,0.5-0.2l-0.2-0.2h0.5c0-0.5,0.5-0.5,0.2-1.1c0.2,0.2,0.5,0.5,0.9,0.5v-1.1c0,0.2,0.2,0.5,0.5,0.2
	c0,0,0.5-0.5,0.5-0.9l13.8-18.4l0.2-0.2c0.2,0,4.6-6.5,6.5-9.2c0-0.2,0.5-1.4,0.9-1.6h0.2c0,4.8-0.9,24.5,9.2,24.5h0.9
	c0.9,0,1.8-0.2,2.5-0.9l0.2,1.1h-1.1l1.1,0.5h-1.4c0,0,0.2,0.2,0.2,0.5h0.2c2.2,0,4.1-2.2,4.1-4.6l-0.2-0.5c-0.2,0-0.5,0.2-0.5,0.2
	h-0.5l-0.2-0.5v-2.7c0-14.7,7.1-28.1,10.8-41.9c0.1,1.7,0.5,3.4,0.5,4.8v0.2c-0.5-0.9-0.5-2.2-0.9-3v0.9c0,0.9,0.9,2.2,0.5,3
	c0.9,1.6,1.8,3.6,3.2,5.4V295v-0.2l1.4,1.8c-0.1-0.1-0.4-0.2-0.5-0.4c1.8,2.6,4.4,4.7,7.3,4.7c0.9,0,1.1-0.2,1.8-0.2
	c-0.2,0-0.2-0.5,0-0.5c0.2,0,0.2,0.5,0,0.5h0.2l11.3-2.5c5.9-2.5,18.1-5.4,24-5.9V292c3.8,0,7.3-0.5,10.8-0.5c0.9,0,5.4-0.2,8.1,0.2
	c0,0,0-0.2,0.2-0.2s0.2,0.2,0.2,0.5c0.9,0.2,1.4,0.5,1.4,1.1c0,13.2-41,35.6-54.3,35.6c-1.6,0-7.5-4.6-7.5-4.6l-0.2,0.2
	c0.2,0.5,1.1,0.5,1.1,1.6c-1.6,0-3-3.4-3.2-5.2h-0.2c-1.1,2.5-2.2,3.6-2.2,6.5c0,1.4,0.5,2.5,0.2,4.1l2.5,5.7
	c3.2,7.3,15.2,7.5,21.3,7.5c3.8,0,14.3-4.1,16.8-3.2c1.8-0.9,7.3-2.5,7.3-5.2h0.2c-0.2,0-0.2-0.5,0-0.5c0.2,0,0.2,0.5,0,0.5
	c3.6,0,7.3-3.2,10-4.8c5.4,0.9,27-22.4,25.6-27.6l0.9,0.5c-0.2-0.2-0.2-1.1-0.2-1.4v-0.2L295.1,300.3z M21.6,274.7
	c0,0-5.4,9.5-7.9,13.2C5.4,301.4,4,303.5,3.1,304c0-0.5-0.5-1.1-0.5-1.6l0.9,0.5l0.2-0.2v-0.2l6.2-21.6h0.2c0,0,0.5,0,0.5,0.2v-0.2
	c0-0.9-0.9-1.1-0.9-1.8h0.9c0-3,4.3-4.1,7.5-4.1v-0.2c0,0,3-0.2,3.2-0.9v0.9H21.6z M81,201.2l-14,43.2c-0.2,0.5-1.6,0.5-1.6,0.5
	l-24.3,4.3h-0.5V249c0-0.2,1.1-1.8,1.1-2.2c31.9-42.1,35.4-42.9,35.4-43.5v-0.2h0.2c-0.2,0-0.2-0.5,0.2-0.5l0.2,0.2
	c0.2-0.2,0.9-0.5,0.9-1.1h0.2c-0.2,0-0.2-0.5,0-0.5v0.2c0-0.2,0-0.5,0.2-0.5c0.2,0,0.2,0.5,0,0.5c0,0.2-0.2,0.2-0.2,0.2h0.2l1.8-1.4
	L81,201.2L81,201.2z M117,287.6c1.4,5.4-10.5,27.2-15.9,27.2c0-3.2-0.2-6.8,0.5-10l4.8-20.6c0.9-3.6,3-8.1,4.8-11.3
	c0,0,0.5-1.4,1.1-1.4v0.2c0.2,0,1.6,0.9,1.8,1.1h2.2c1.1,0,1.8-0.2,3-0.2c0.5,0,0.5,0.2,0.5,0.9C119.9,277.4,118.3,283.9,117,287.6z
	 M378,295.2l0.5,0.2c0-0.2-0.2-1.1-0.2-1.1c0-0.2,0.2-0.5,0.2-0.5V288c0-0.5-2.2-3.2-2.7-3.2v0.2c-0.9,0-1.6-0.9-2.7-0.9v-0.5h0.5
	c-0.2,0-0.2-0.2-0.2-0.5c-0.9-0.2-1.8-0.5-3-1.1h1.8c-0.2-0.2-1.8-0.5-2.2-0.5h-0.1c-0.2,0.2-1.8,0.2-2.2,0.2l-0.9-0.9
	c0-0.2-0.5-0.2-0.5-0.5c0.2,0,0.2-0.2,0.2-0.5c0-3.2-5.7-4.8-7.9-5.4v0.2c-1.1,0-1.8-0.5-3-0.5v0.2c0,0-1.1,0.5-1.6,0.5h-0.2
	l0.5-0.5l-0.9-0.9l0.5-0.2c-0.2,0-1.1-0.2-1.4-0.2h-0.9l0.9,0.2c-1.1,0-2.7,1.4-3.2,1.4l-0.2-0.2c0.2,0,0.5-0.5,0.9-0.9
	c-7.5,0-17.5,18.6-20,23.5c0.2,0,0.2,0,0.2,0.2h0.2c-0.2,0-0.2-0.9,0.2-0.9c0.2,0,0.2,0.9,0,0.9h-0.2c0,1.8-1.6,4.3-1.6,6.5
	c0,3,0.5,5.7,1.4,8.4h-0.2l-0.5-0.5v0.2c0,4.3,4.1,6.8,5.9,10H335l0.5,0.5c0.2,0,0.5-0.2,0.9-0.2h0.2l0.2,0.2c-0.2,0-0.5,0-0.5,0.2
	c0,0.5,0.5,0.2,0.9,0.2v0.5c1.4,0,1.6,1.4,2.5,1.4h0.2c-0.5-0.2-0.2-0.2-0.2-0.5c0.5,0,1.8,0,1.6,0.9c0.5-0.2,1.1-0.9,1.4-0.9
	c0.9,0,0.9,1.1,0.9,1.4c-0.9,0-0.2-0.2-1.4,0.2c0.9,0.5,2.5,0.5,3.2,0.5c1.6,0,2.7,0,3.8-0.9l-0.2-0.2
	C355.6,327,379.4,304.1,378,295.2z M361.3,291.2c-0.5-0.2-0.9-1.1-1.1-1.4v0.2c0.2,0.5,0.9,3.8,0.9,4.3v0.5c0,7-11.1,19.2-18.6,19.2
	c-1.6,0-1.8-0.9-1.8-2.5c0-9.2,8.1-19.2,14.3-24.9h1.6c1.8,0,3.8,0.7,4.6,2.5c-0.1,0.1-0.1,0.5,0.1,0.5c0,0.2,0.2,0.2,0.2,0.5v1
	H361.3z M333,268.7h-2.5c0.5-0.5,1.4-0.9,1.8-0.5c-0.5-1.1-0.5-0.5-1.1-0.5c0-1.1,3-1.8,6.5-2.2c-0.2,0-0.2,0-0.2-0.2v-0.2
	c0-0.2,0.2-0.2,0.2-0.2c-0.2-0.9-0.2-0.9-0.9-0.9c-1.6,0-3.6,0.5-5.2,0.5v-0.9c5.7-0.5,11.6-0.2,17.2-1.1c0.5,0,1.4-0.2,1.4-0.2
	v-0.5c-1.1,0-9.5-1.1-11.1,0.5v-0.9c3.8,0,7.5-0.9,11.6-0.9c0.2,0,2.2,0,2.7,0.5c-1.1,0.2-2.2,0-2.2,1.1c0.5,0,2.2-0.2,2.5,0.2
	l0.2,0.5c-0.2,0-1.6-0.2-2.2-0.2c-2.7,0-5.4,1.6-8.4,1.6c-1.4,0-2.2-0.2-4.1-0.2c0,0.2,0.5,0.2,0.5,0.5l0.2,0.2h-2.2v0.5
	c3.8-0.2,8.4-0.2,10.2-0.2h0.5l-1.6,0.5h1.1c0.9,0,2.5-0.2,2.5-0.2v-0.2c0.9,0,2.2-0.9,2.7-0.5l-0.2-0.5h1.1c0.2,0,4.6-2.7,6.5-2.7
	h0.5c0.2,0.2,1.6,0.5,1.8,0.9c1.1,0,2.5-3.2,2.5-4.3c0-11.6-24.3-11.1-30.8-11.1v-0.2c0.2-1.1,0.5-3,0.5-4.3c0-2.2-2.7-8.1-5.4-8.1
	h-0.2c0.5,0.2,1.4,0.9,1.6,1.4h-0.2h-0.5c0,0,0,0.2-0.2,0.2c-0.2,0-0.2-0.5,0-0.5l-1.1-0.5c0,0,0.1,0.1,0.1,0.2l-0.5,0.2
	c-0.2,0-0.2-0.2-0.2-0.2c0-0.2,0.2-0.2,0.2-0.5c-0.9-0.2-1.4-0.9-1.4-1.1l-0.9,0.9c0-0.2,0-0.9-0.5-0.9c0,1.1-1.1,1.8-1.1,3
	c0,0,0.2,0.2,0.5,0.2c-1.1,0.2-0.5,1.4-1.4,1.8c-1.4,3.6-2.5,10.2-6.8,11.1c-3.8,0.9-12.9,2.5-12.9,2.5H304l-21.6,5.4l-8.4,3.2
	c0,0-0.2,0.2-0.5,0.2v-0.2l-1.1,0.2c0.2,0,0.2,0.5,0,0.5s-0.2-0.1-0.1-0.2l-0.6,0.2c0,0.2,0,0.5-0.2,0.5c-0.2,0-0.5-0.2-0.2-0.5
	l-4.1,1.4c-0.2,0-1.1,0.2-1.1,0.2c-0.2,0-1.1-0.2-1.4-0.2h-0.2c0,0.9,1.4,2.5,1.8,2.7v0.2l-0.5-0.2c0.5,0.9,1.4,3,2.5,3
	c-0.5-0.5-1.1-1.4-1.4-2.2c0.5,0.9,3,2.5,3,3h-0.2l-0.5-0.2h-0.2c0.9,0.9,1.4,1.6,2.2,2.2c-0.2-0.2-0.2-0.5,0-0.5
	c0.5,0,0.5,0.5,0.2,0.5c3.6,2.5,7.5,3,11.8,3l0.9-0.2h3.2l12.4-1.4c0-0.2,0-0.5,0.2-0.5v0.5l2.7-0.2v-0.2h0.2c-0.2,0-0.2-0.5,0-0.5
	c0.2,0,0.2,0.5,0,0.5h1.6c-0.2,0-0.2-0.5,0-0.5s0.2,0.5,0,0.5c1.8,0,3.6-0.2,5.7-0.2c0,1.1-0.5,1.8-0.5,2.7h-0.5
	c0,0.2,0.2,0.5,0.5,0.5c-0.2,0.2-0.9,0.2-0.9,0.9h0.2c0,0.5-0.2,1.1-0.2,1.6l-0.5-0.5c-0.5,0.9,0.2,1.8-0.5,2.7l-0.5-0.2v0.5
	c-5.2,13.2-10,29.4-10,44c0,6.8,2.2,17.5,10.8,17.5c0-0.2,0.5-0.5,1.1-0.9h-0.2c-0.2,0-0.2-0.9,0-0.9c0.2,0,0.5,0.9,0.2,0.9h0.5
	c0,0.5-0.9,0.5-1.1,1.1h0.2c0.5,0,2.2-1.4,2.2-1.4s-0.2-0.2-0.2-0.5l0.2-0.5l0.2,0.5c1.8-0.9,1.8-7,1.8-8.6c0-1.1-0.2-1.6-0.2-2.7
	c0-1.6,0.9-3.6,0.9-5.2l-0.2-0.5v-0.5c0.5,0,0.5-0.5,0.9-1.4s1.8-6.2,1.8-8.1l-0.2-0.2c0.2,0,0.5-0.5,0.5-0.9
	c1.8-4.6,2.7-7,4.6-12.9c4.3-1.1,3-19.7,7.3-21.9C330,271.7,328.9,270.6,333,268.7z M473.9,236.3c0-1.6-3.8-3-5.2-3h-0.5l0.5,0.5
	c-0.9,0.9-1.1,1.6-1.8,2.2v-0.2c0-0.2,0.2-1.6,0.2-1.8H466c-5.4,0-8.1,6.5-10.5,10.2c-2.5,5.4-4.3,10.5-6.5,15.9l-7.3,23.3
	c-1.4,5.7-4.1,14.3-5.2,18.4c0,0.2-0.2,0.2-0.2,0.5h-0.2c-0.9-2.5-3.2-9.2-5.4-10.2v0.9c-0.5-0.2-0.9-0.5-0.9-0.9
	c0-0.5,0.5-0.5,0.5-0.9v-0.2l-1.2-2.2v0.2l0.2,0.9c0.2,0.2,0.2,1.1,0.2,1.1c0,0.2-0.2,0.9-0.5,0.9c0-1.6,0-2.5-1.1-2.7
	c0.5-0.2,0.5-0.5,0.5-1.1v-0.5c-0.9-1.6-3.6-9.2-5.4-10.2l-0.2,0.2c-0.5-0.2-1.6-3-1.6-3.6l-1.8-2.5c-0.5,0-0.5-0.2-0.2-0.5
	c-0.2-0.5-0.5-1.1-1.1-1.6v0.5c-0.2,0-0.2-0.9,0-0.9l-0.9-1.4c-0.2,0-0.2-0.2-0.2-0.2c-0.9-1.6-1.4-3.2-1.4-4.6c0-2.7,2.7-4.3,3-7
	H418c0-0.2,0.2-0.5-0.2-0.9l-0.2,0.5c-0.5-1.4-2.7-3-4.6-3.6l-0.2-0.2c-0.2,0-0.2,0.2-0.2,0.2c-0.2-0.2-0.9-0.2-1.1-0.2
	c-0.2,0-0.5,0.2-0.9,0.2c-0.9,0-2.7-1.1-3.8-1.1c-0.2,0.2-0.2,0.2-0.5,0.2h-0.2c0-0.5,0.2-0.9,0.5-1.1l-2.5,0.2h1.1l-0.9,0.5
	l-0.5-0.5h-0.9c0.2,0.2,0,0.9-0.2,0.9s-0.2-0.9,0-0.9h-0.5l-2.5,2.5c0.2,1.4-0.2,1.8-0.9,2.7L382,295.6c-4.1,9.7-7.3,21.3-7.3,31.9
	c0,6.2,0.5,24.3,10.8,24.3c6.8,0,9.7-14.9,9.7-20.6c0-1.8,0-3-0.2-4.6c-2.5,3.2-4.3,16.5-9.2,16.5v-0.5c0-0.9,0.2-2.7,0.2-2.7
	l6.2-21.1c6.8-11.6,8.6-25.6,15.4-37.2l0.9,0.5l4.1,11.1c0.5,1.6,16.5,41.9,17,41.9h0.5c0,0,0.9-0.2,1.1-0.2v0.2l-0.2,0.2
	c1.1,0,0,0.5,1.4,1.1c0.2,0.2,0.9,0,0.9-0.2c-0.9,1.6,1.4,0.5,1.4,0.5v0.9c1.1,0,2.2,1.6,3.2,1.6h0.5l0.2-0.2c1.1,0,2.2,1.4,3.4,1.4
	v-0.9l1.1,0.9l0.5-0.2c0,0.5,0.5,0.5,0.9,0.5s0.9,0,0.9-0.2c0.2,0,0.9,0.5,1.1,0.5h0.2V340c0.2,0,1.4,1.1,1.6,1.1
	c1.4,0,3-4.1,4.6-4.6c1.6-8.9,2.7-18.1,3.6-27.2c-0.2-3.2,1.6-6.5,1.4-9.5l2.7-15.2c6.2-12.9,8.4-31.5,12.9-45.6
	C473,238.2,473.9,237.5,473.9,236.3z"/>
</svg>
